<?xml version="1.0" encoding="UTF-8" standalone="no"?>
<svg
   xmlns:dc="http://purl.org/dc/elements/1.1/"
   xmlns:cc="http://creativecommons.org/ns#"
   xmlns:rdf="http://www.w3.org/1999/02/22-rdf-syntax-ns#"
   xmlns:svg="http://www.w3.org/2000/svg"
   xmlns="http://www.w3.org/2000/svg"
   xmlns:sodipodi="http://sodipodi.sourceforge.net/DTD/sodipodi-0.dtd"
   xmlns:inkscape="http://www.inkscape.org/namespaces/inkscape"
   sodipodi:docname="yvs_logo.svg"
   inkscape:version="1.0 (4035a4fb49, 2020-05-01)"
   id="svg8"
   version="1.1"
   viewBox="0 0 210 210"
   height="210mm"
   width="210mm">
  <defs
     id="defs2" />
  <sodipodi:namedview
     inkscape:window-maximized="1"
     inkscape:window-y="0"
     inkscape:window-x="0"
     inkscape:window-height="1376"
     inkscape:window-width="2560"
     showgrid="false"
     inkscape:document-rotation="0"
     inkscape:current-layer="g74"
     inkscape:document-units="mm"
     inkscape:cy="710.19696"
     inkscape:cx="36.277301"
     inkscape:zoom="0.7"
     inkscape:pageshadow="2"
     inkscape:pageopacity="0.0"
     borderopacity="1.0"
     bordercolor="#666666"
     pagecolor="#ffffff"
     id="base" />
  <metadata
     id="metadata5">
    <rdf:RDF>
      <cc:Work
         rdf:about="">
        <dc:format>image/svg+xml</dc:format>
        <dc:type
           rdf:resource="http://purl.org/dc/dcmitype/StillImage" />
        <dc:title></dc:title>
      </cc:Work>
    </rdf:RDF>
  </metadata>
  <g
     id="layer1"
     inkscape:groupmode="layer"
     inkscape:label="Layer 1">
    <g
       transform="translate(16.920915,-39.917186)"
       id="g74">
      <g
         style="font-style:normal;font-weight:normal;font-size:62.5615px;line-height:1.25;font-family:sans-serif;fill:#000000;fill-opacity:1;stroke:none;stroke-width:1.56404"
         id="text12"
         aria-label="YVS">
        <path
           id="path76"
           style="font-style:normal;font-variant:normal;font-weight:normal;font-stretch:normal;font-family:Qualy;-inkscape-font-specification:Qualy;stroke-width:1.56404"
           d="M 36.853416,164.88643 V 147.19937 L 26.71161,127.22123 25.459159,124.93016 H 19.56347 l 11.669186,22.4525 v 17.50377 z m 4.826522,-26.48477 6.90376,-13.4715 h -5.742951 l -4.123927,7.88129 z" />
        <path
           id="path78"
           style="font-style:normal;font-variant:normal;font-weight:normal;font-stretch:normal;font-family:Qualy;-inkscape-font-specification:Qualy;stroke-width:1.56404"
           d="m 75.37395,164.88643 -0.549857,0.85534 -14.510114,-40.81161 h -5.681855 l 14.204638,39.95627 z m 3.665713,-11.4248 10.325091,-28.53147 h -5.651307 l -7.484164,20.55854 z" />
        <path
           id="path80"
           style="font-style:normal;font-variant:normal;font-weight:normal;font-stretch:normal;font-family:Qualy;-inkscape-font-specification:Qualy;stroke-width:1.56404"
           d="m 103.84432,166.07779 c 3.75735,0 6.47609,-0.97752 8.67552,-3.05476 2.16888,-2.04669 3.17695,-4.4905 3.17695,-7.82019 0,-3.32969 -1.25245,-6.14007 -3.94064,-8.76716 -0.27493,-0.21383 -0.79424,-0.6415 -1.46629,-1.283 -0.94698,-0.85533 -2.38271,-2.10778 -4.27666,-3.66571 -3.17696,-2.77984 -5.1931,-4.61269 -6.140074,-5.55967 -0.549857,-0.97752 -0.824785,-1.98559 -0.824785,-2.71873 0,-1.06917 0.549857,-2.26053 1.374639,-2.90203 0.7026,-0.73314 2.04669,-1.13026 3.42134,-1.13026 2.59654,0 5.19309,1.77176 6.56773,3.72681 l 4.15448,-3.60462 c -1.40519,-1.55793 -3.32969,-3.2075 -5.132,-4.12393 -1.80231,-1.00807 -3.54352,-1.43573 -5.59021,-1.43573 -2.93257,0 -5.254193,0.88588 -7.453621,2.84092 -2.077237,1.9856 -2.993665,4.12393 -2.993665,6.81212 0,1.77176 0.610952,3.45188 1.985594,5.43748 1.313547,1.92449 4.185022,4.73487 8.675522,8.46168 2.41326,1.9856 4.09338,3.54353 4.97926,4.58214 0.76369,1.19136 1.2219,2.53546 1.2219,3.72681 0,1.31355 -0.70259,2.68819 -1.80231,3.72681 -1.2219,0.97752 -2.81038,1.49683 -4.39885,1.49683 -3.05476,0 -5.865142,-2.38271 -7.42307,-5.25419 l -4.826522,2.90203 c 2.443809,4.88761 6.414998,7.60635 12.035762,7.60635 z" />
      </g>
      <path
         id="path48"
         style="stroke-width:0.211666"
         d="m 111.31497,106.26977 h -4.36479 l -1e-5,-13.893519 h -6.12303 v 13.893519 h -4.364791 l 3.713251,6.43145 3.71326,6.43144 3.71327,-6.43144 z" />
      <path
         d="m 137.23316,123.47263 -3.08638,-3.08637 9.8242,-9.8242 -4.32964,-4.32964 -9.8242,9.8242 -3.08637,-3.08639 -1.92206,7.1734 -1.92205,7.17339 7.1734,-1.92204 z"
         style="stroke-width:0.211666"
         id="path50" />
      <path
         id="path52"
         style="stroke-width:0.211666"
         d="m 142.70119,152.33461 -1e-5,-4.36479 13.89352,-2e-5 v -6.12303 h -13.89352 l 2e-5,-4.36479 -6.43146,3.71325 -6.43144,3.71326 6.43144,3.71328 z" />
      <path
         d="m 126.73091,176.77452 3.08636,-3.08638 9.82421,9.82419 4.32964,-4.32964 -9.8242,-9.8242 3.08639,-3.08636 -7.1734,-1.92207 -7.17338,-1.92205 1.92203,7.17341 z"
         style="stroke-width:0.211666"
         id="path54" />
      <path
         id="path56"
         style="stroke-width:0.211666"
         d="m 96.462345,183.5646 h 4.364785 l 2e-5,13.89351 6.12302,1e-5 V 183.5646 h 4.3648 l -3.71325,-6.43146 -3.71326,-6.43144 -3.71329,6.43145 z" />
    </g>
  </g>
</svg>
